<mxfile host="app.diagrams.net" modified="2022-09-30T08:55:29.470Z" agent="5.0 (Macintosh; Intel Mac OS X 10_15_7) AppleWebKit/537.36 (KHTML, like Gecko) Chrome/104.0.5112.114 YaBrowser/22.9.1.1081 Yowser/2.5 Safari/537.36" etag="7fKBRZa-3OCyl4YCL9Tq" version="20.3.0" type="github">
  <diagram id="MQw9yE9drxXGQ81zfHjl" name="Страница 1">
    <mxGraphModel dx="1077" dy="593" grid="1" gridSize="10" guides="1" tooltips="1" connect="1" arrows="1" fold="1" page="1" pageScale="1" pageWidth="827" pageHeight="1169" math="0" shadow="0">
      <root>
        <mxCell id="0" />
        <mxCell id="1" parent="0" />
        <mxCell id="T6Zy8xDUIOfD0hwuKNGT-2" value="Visitor" style="text;html=1;strokeColor=none;fillColor=none;align=center;verticalAlign=middle;whiteSpace=wrap;rounded=0;" vertex="1" parent="1">
          <mxGeometry x="20" y="135" width="60" height="30" as="geometry" />
        </mxCell>
        <mxCell id="T6Zy8xDUIOfD0hwuKNGT-4" value="V.I.P." style="text;html=1;strokeColor=none;fillColor=none;align=center;verticalAlign=middle;whiteSpace=wrap;rounded=0;" vertex="1" parent="1">
          <mxGeometry x="20" y="285" width="60" height="30" as="geometry" />
        </mxCell>
        <mxCell id="T6Zy8xDUIOfD0hwuKNGT-6" value="Wait &lt;br&gt;(fair is full or VIP is inside)" style="rounded=0;whiteSpace=wrap;html=1;fillColor=#FF9999;" vertex="1" parent="1">
          <mxGeometry x="370" y="120" width="120" height="60" as="geometry" />
        </mxCell>
        <mxCell id="T6Zy8xDUIOfD0hwuKNGT-7" value="update nr of people inside" style="rounded=0;whiteSpace=wrap;html=1;fillColor=#99FFFF;" vertex="1" parent="1">
          <mxGeometry x="490" y="120" width="120" height="60" as="geometry" />
        </mxCell>
        <mxCell id="T6Zy8xDUIOfD0hwuKNGT-9" value="Wait &lt;br&gt;(for other VIP and less than 10 people at the fair)" style="rounded=0;whiteSpace=wrap;html=1;fillColor=#FF9999;" vertex="1" parent="1">
          <mxGeometry x="370" y="270" width="120" height="60" as="geometry" />
        </mxCell>
        <mxCell id="T6Zy8xDUIOfD0hwuKNGT-10" value="update nr of people inside" style="rounded=0;whiteSpace=wrap;html=1;fillColor=#99FFFF;" vertex="1" parent="1">
          <mxGeometry x="490" y="270" width="120" height="60" as="geometry" />
        </mxCell>
        <mxCell id="T6Zy8xDUIOfD0hwuKNGT-11" value="visit fair" style="rounded=0;whiteSpace=wrap;html=1;fillColor=#FFFF99;" vertex="1" parent="1">
          <mxGeometry x="610" y="120" width="120" height="60" as="geometry" />
        </mxCell>
        <mxCell id="T6Zy8xDUIOfD0hwuKNGT-12" value="visit fair" style="rounded=0;whiteSpace=wrap;html=1;fillColor=#FFFF99;" vertex="1" parent="1">
          <mxGeometry x="610" y="270" width="120" height="60" as="geometry" />
        </mxCell>
        <mxCell id="T6Zy8xDUIOfD0hwuKNGT-13" value="Go out" style="rounded=0;whiteSpace=wrap;html=1;fillColor=#99FFFF;" vertex="1" parent="1">
          <mxGeometry x="730" y="120" width="120" height="60" as="geometry" />
        </mxCell>
        <mxCell id="T6Zy8xDUIOfD0hwuKNGT-14" value="Go out" style="rounded=0;whiteSpace=wrap;html=1;fillColor=#99FFFF;" vertex="1" parent="1">
          <mxGeometry x="730" y="270" width="120" height="60" as="geometry" />
        </mxCell>
        <mxCell id="T6Zy8xDUIOfD0hwuKNGT-17" value="Wait &lt;br&gt;(for previous visitors)" style="rounded=0;whiteSpace=wrap;html=1;fillColor=#FF9999;" vertex="1" parent="1">
          <mxGeometry x="130" y="120" width="120" height="60" as="geometry" />
        </mxCell>
        <mxCell id="T6Zy8xDUIOfD0hwuKNGT-18" value="Wait &lt;br&gt;(for visitors if there are 3 VIP was in row)" style="rounded=0;whiteSpace=wrap;html=1;fillColor=#FF9999;" vertex="1" parent="1">
          <mxGeometry x="130" y="270" width="120" height="60" as="geometry" />
        </mxCell>
        <mxCell id="T6Zy8xDUIOfD0hwuKNGT-23" value="Move to the next part of visitors" style="rounded=0;whiteSpace=wrap;html=1;fillColor=#99FFFF;" vertex="1" parent="1">
          <mxGeometry x="250" y="120" width="120" height="60" as="geometry" />
        </mxCell>
        <mxCell id="T6Zy8xDUIOfD0hwuKNGT-24" value="Move forward" style="rounded=0;whiteSpace=wrap;html=1;fillColor=#99FFFF;" vertex="1" parent="1">
          <mxGeometry x="250" y="270" width="120" height="60" as="geometry" />
        </mxCell>
        <mxCell id="T6Zy8xDUIOfD0hwuKNGT-27" value="Live life" style="rounded=0;whiteSpace=wrap;html=1;fillColor=#FFFF99;" vertex="1" parent="1">
          <mxGeometry x="850" y="120" width="120" height="60" as="geometry" />
        </mxCell>
        <mxCell id="T6Zy8xDUIOfD0hwuKNGT-28" value="Live life" style="rounded=0;whiteSpace=wrap;html=1;fillColor=#FFFF99;" vertex="1" parent="1">
          <mxGeometry x="850" y="270" width="120" height="60" as="geometry" />
        </mxCell>
      </root>
    </mxGraphModel>
  </diagram>
</mxfile>
